<?xml version="1.0" standalone="no"?>
<!DOCTYPE svg PUBLIC "-//W3C//DTD SVG 20010904//EN"
 "http://www.w3.org/TR/2001/REC-SVG-20010904/DTD/svg10.dtd">
<svg version="1.0" xmlns="http://www.w3.org/2000/svg"
 width="8.000000pt" height="10.000000pt" viewBox="0 0 8.000000 10.000000"
 preserveAspectRatio="xMidYMid meet">

<g transform="translate(0.000000,10.000000) scale(0.100000,-0.100000)"
fill="#000000" stroke="none">
<path d="M30 85 c0 -19 16 -19 24 0 3 9 0 15 -9 15 -8 0 -15 -7 -15 -15z"/>
<path d="M0 43 c0 -32 4 -43 15 -43 19 0 19 27 0 60 -14 25 -14 24 -15 -17z"/>
<path d="M62 55 c-16 -35 -15 -55 3 -55 11 0 15 11 15 40 0 47 -3 49 -18 15z"/>
</g>
</svg>
